<?xml version="1.0" standalone="no"?>
<!DOCTYPE svg PUBLIC "-//W3C//DTD SVG 20010904//EN"
 "http://www.w3.org/TR/2001/REC-SVG-20010904/DTD/svg10.dtd">
<svg version="1.0" xmlns="http://www.w3.org/2000/svg"
 width="298.000000pt" height="298.000000pt" viewBox="0 0 298.000000 298.000000"
 preserveAspectRatio="xMidYMid meet">
<metadata>
Created by potrace 1.11, written by Peter Selinger 2001-2013
</metadata>
<g transform="translate(0.000000,298.000000) scale(0.100000,-0.100000)"
fill="#000000" stroke="none">
<path d="M0 1490 l0 -1490 233 0 c182 1 237 4 257 15 33 19 82 19 127 0 30
-13 118 -15 574 -15 l539 0 0 23 c0 12 3 32 6 44 5 18 0 24 -28 36 -19 8 -76
52 -126 98 -107 97 -114 117 -60 187 l32 42 68 0 c64 0 70 -2 107 -36 34 -30
43 -34 60 -24 12 6 24 22 27 35 9 34 21 31 41 -10 12 -24 23 -35 38 -35 27 0
106 41 134 69 28 28 42 26 37 -4 -8 -43 -17 -65 -27 -65 -5 0 -9 -16 -9 -35 0
-28 5 -37 23 -44 59 -22 117 64 123 183 2 46 -1 73 -8 77 -20 13 12 39 46 38
17 0 25 -3 19 -6 -16 -6 -17 -23 -3 -23 18 0 53 38 45 49 -3 6 -22 18 -41 26
-19 8 -34 21 -34 29 0 30 -21 27 -73 -11 -62 -45 -121 -105 -160 -162 -30 -44
-53 -55 -42 -20 6 19 4 20 -24 14 -30 -6 -32 -5 -25 19 8 33 -16 86 -38 86
-10 0 -18 7 -18 16 0 24 -35 12 -36 -12 -1 -28 -45 -87 -57 -75 -12 12 -48 1
-40 -13 3 -6 0 -5 -8 2 -12 11 -10 19 10 55 47 84 52 96 45 121 -4 18 -15 28
-33 32 -98 22 -119 41 -80 74 13 10 18 19 12 20 -7 0 -13 8 -13 18 0 10 -3 22
-7 26 -5 4 -8 19 -8 33 0 39 -23 40 -27 1 -2 -25 -8 -33 -23 -33 -15 0 -21 8
-23 31 -5 52 14 83 64 105 35 16 45 25 44 42 -3 35 -1 38 19 28 14 -8 18 -19
16 -44 -3 -31 -1 -33 21 -29 13 2 24 8 24 12 0 5 13 11 30 15 25 6 70 50 70
69 0 10 60 66 70 66 6 0 10 17 11 38 1 94 17 121 70 122 45 0 59 -58 34 -137
-4 -14 -3 -23 3 -23 6 0 16 16 22 35 16 49 26 51 68 18 20 -17 47 -35 60 -42
20 -11 22 -9 22 12 0 12 -5 28 -12 35 -20 20 7 14 33 -7 17 -13 33 -17 56 -14
33 6 45 -8 22 -23 -8 -4 -6 -10 6 -17 12 -7 20 -5 26 4 5 8 9 10 9 5 0 -5 17
8 37 30 38 38 38 38 14 44 -19 4 -21 7 -10 17 8 6 27 15 42 18 15 4 32 16 38
26 8 16 5 21 -16 29 -33 12 -32 28 2 32 16 2 32 12 38 24 5 11 18 28 28 38 20
20 23 56 4 56 -7 0 -23 -18 -36 -40 -12 -22 -29 -40 -37 -40 -8 0 -14 -8 -15
-17 0 -11 -3 -13 -6 -5 -2 6 -13 12 -23 12 -9 0 -23 7 -30 15 -13 15 -7 22 58
71 11 8 12 18 4 47 -12 43 -2 48 23 11 15 -23 19 -25 32 -12 12 13 11 21 -8
62 -25 51 -42 55 -47 11 l-4 -28 -14 29 c-9 17 -15 58 -15 112 0 73 3 87 21
107 13 13 20 33 19 47 -2 12 0 29 5 36 6 10 4 13 -8 10 -10 -1 -18 -7 -19 -13
-3 -23 -101 -53 -112 -35 -4 6 3 23 14 39 12 16 21 34 21 40 0 6 9 28 20 48
24 45 27 103 5 103 -41 0 -135 44 -135 64 0 12 23 6 34 -9 6 -8 32 -18 59 -21
43 -6 47 -5 47 15 0 17 -4 20 -23 16 -17 -5 -33 1 -53 18 -16 13 -37 26 -46
30 -10 3 -18 13 -18 21 0 7 -7 17 -16 20 -10 4 -13 13 -9 26 4 13 1 22 -9 26
-9 3 -16 12 -16 20 0 8 -6 11 -15 8 -9 -4 -23 4 -36 20 -24 30 -38 27 -32 -7
4 -20 -1 -27 -36 -40 -48 -20 -62 -54 -37 -91 14 -22 14 -25 0 -37 -11 -9 -20
-10 -32 -2 -14 8 -17 27 -17 101 0 71 -4 94 -17 109 -24 26 -23 29 14 63 l33
29 -60 -4 c-66 -5 -76 1 -183 98 -29 26 -79 60 -110 75 -31 15 -58 30 -60 35
-2 4 -10 7 -18 7 -8 0 -14 4 -14 10 0 36 136 39 209 3 25 -12 49 -19 54 -16 4
3 16 -4 25 -14 9 -10 41 -35 70 -56 47 -33 55 -36 75 -25 12 7 37 13 56 14 21
1 37 8 43 19 6 9 19 26 29 36 11 11 19 32 19 48 0 40 16 48 24 11 7 -37 43
-41 67 -7 20 29 40 105 28 113 -5 3 -9 18 -9 33 0 16 -9 40 -21 54 -11 15 -23
43 -26 62 -6 34 -6 35 -54 35 -48 0 -49 -1 -49 -30 0 -28 -2 -30 -40 -30 -23
0 -40 -5 -40 -11 0 -8 -5 -7 -16 2 -11 9 -14 22 -10 41 5 23 2 28 -15 28 -11
0 -18 -4 -14 -9 3 -5 0 -13 -6 -17 -6 -4 -16 1 -21 10 -8 15 -89 16 -963 16
l-955 0 0 -1490z m1534 1299 c-6 -11 -24 -2 -24 11 0 5 7 7 15 4 8 -4 12 -10
9 -15z m-466 -61 c-5 -15 -43 -22 -66 -13 -15 6 -15 8 3 15 32 13 67 12 63 -2z
m122 -3 c15 -18 7 -18 -40 0 l-35 13 31 1 c17 1 37 -6 44 -14z m330 -21 c0 -8
-4 -14 -10 -14 -5 0 -10 -7 -10 -17 0 -14 -55 -73 -68 -73 -2 0 -2 11 2 23 3
13 0 32 -8 42 -25 35 -9 54 45 53 35 0 49 -4 49 -14z m520 6 c0 -5 -2 -10 -4
-10 -3 0 -8 5 -11 10 -3 6 -1 10 4 10 6 0 11 -4 11 -10z m-620 -139 c0 -6 -4
-13 -10 -16 -5 -3 -10 1 -10 9 0 9 5 16 10 16 6 0 10 -4 10 -9z m-115 -253
c14 -12 25 -28 25 -36 0 -10 7 -12 25 -8 39 10 64 -39 60 -115 -1 -39 2 -62
10 -69 8 -6 16 -29 20 -51 5 -30 13 -43 31 -49 29 -11 30 -27 4 -60 -24 -31
-25 -46 -3 -54 14 -6 14 -9 -6 -22 -27 -19 -59 -13 -98 19 -97 81 -213 61
-372 -66 -47 -37 -90 -75 -94 -83 -7 -12 -1 -25 21 -47 16 -18 32 -40 35 -50
5 -13 13 -16 30 -12 15 4 28 1 36 -9 9 -11 10 -16 2 -16 -23 0 -10 -28 19 -40
24 -10 43 -10 97 1 56 11 74 19 105 50 37 38 81 65 127 79 14 4 34 11 44 15
12 5 17 2 17 -9 0 -9 4 -16 10 -16 18 0 29 -36 21 -71 -8 -35 -46 -89 -63 -89
-5 0 -23 -10 -41 -22 -18 -13 -33 -24 -35 -25 -2 -1 -8 -37 -14 -80 -5 -43
-17 -89 -25 -102 -13 -20 -13 -27 -2 -49 11 -20 11 -26 2 -29 -23 -8 -14 -26
10 -20 12 3 38 10 57 14 19 5 35 13 35 18 0 18 62 120 86 142 13 12 48 30 77
41 l53 21 52 -25 c29 -13 57 -24 64 -24 43 0 2 -57 -48 -67 -19 -3 -39 -13
-45 -22 -8 -9 -25 -14 -45 -13 -27 2 -36 -2 -44 -20 -10 -22 -3 -160 10 -218
4 -17 3 -21 -3 -12 -8 12 -21 11 -81 -3 -39 -10 -74 -22 -77 -26 -3 -5 -21 -9
-40 -9 -40 0 -39 2 -18 -38 8 -18 13 -35 11 -40 -3 -4 12 -6 33 -4 35 4 38 2
33 -16 -3 -12 -13 -28 -24 -38 -15 -14 -21 -14 -34 -4 -8 7 -15 20 -15 29 -1
12 -6 10 -20 -9 -11 -14 -24 -30 -29 -35 -4 -6 -11 -26 -15 -45 -12 -64 -62
-102 -110 -84 -13 5 -13 10 -2 42 17 46 27 75 28 82 0 3 4 13 10 23 12 23 2
53 -20 62 -9 4 -43 9 -76 11 -32 3 -64 10 -71 17 -10 11 5 12 79 9 50 -2 95
-8 100 -13 22 -20 104 0 90 22 -3 6 -12 8 -19 5 -18 -6 -77 15 -91 33 -21 27
-6 47 32 43 39 -5 45 11 12 30 -97 53 -231 73 -409 59 -9 0 -23 -19 -33 -44
-21 -57 -21 -76 2 -70 15 4 19 -2 20 -31 2 -40 -4 -43 -36 -20 -31 21 -50 62
-67 144 -8 39 -32 124 -54 188 -36 109 -39 127 -43 255 -2 89 0 136 6 134 6
-2 9 -22 8 -44 -3 -36 0 -43 27 -59 16 -10 32 -26 34 -36 9 -33 112 -17 112
17 0 11 6 24 13 28 33 21 -3 114 -55 141 -16 8 -63 16 -105 18 -61 2 -78 6
-81 19 -9 33 -7 224 2 238 11 17 41 7 41 -14 0 -8 5 -15 10 -15 16 0 110 91
110 105 0 25 40 61 99 90 37 18 59 35 56 43 -3 7 4 12 18 12 12 0 28 9 35 20
8 14 23 20 48 20 19 0 54 9 76 20 23 11 58 20 77 21 20 0 54 9 76 19 51 24 50
24 80 -2z m805 -32 c0 -2 -7 -9 -15 -16 -13 -11 -14 -10 -9 4 5 14 24 23 24
12z m80 -144 c0 -8 -3 -12 -7 -10 -44 21 -64 29 -100 38 -24 6 -43 15 -43 20
0 5 14 20 32 33 l31 25 43 -46 c24 -26 43 -53 44 -60z m-260 -52 c0 -5 -4 -10
-9 -10 -6 0 -13 5 -16 10 -3 6 1 10 9 10 9 0 16 -4 16 -10z m-1385 -30 c3 -5
1 -10 -4 -10 -6 0 -11 5 -11 10 0 6 2 10 4 10 3 0 8 -4 11 -10z m1405 -15 c0
-8 -9 -19 -20 -25 -15 -8 -20 -8 -20 3 0 14 19 37 32 37 4 0 8 -7 8 -15z
m-103 -207 c-3 -8 -6 -5 -6 6 -1 11 2 17 5 13 3 -3 4 -12 1 -19z m-549 -24
c34 -23 26 -34 -24 -34 -44 0 -73 17 -74 43 0 13 75 7 98 -9z m-98 -98 c0 -29
-16 -36 -78 -36 -39 1 -44 3 -28 11 10 6 27 20 37 30 11 11 30 19 44 19 20 0
25 -5 25 -24z m-77 -128 c-6 -10 -45 -10 -60 0 -7 5 4 8 26 7 22 0 37 -3 34
-7z m-363 -12 c0 -3 -4 -8 -10 -11 -5 -3 -10 -1 -10 4 0 6 5 11 10 11 6 0 10
-2 10 -4z m897 -38 c-3 -7 -5 -2 -5 12 0 14 2 19 5 13 2 -7 2 -19 0 -25z m0
-65 c-3 -10 -5 -2 -5 17 0 19 2 27 5 18 2 -10 2 -26 0 -35z m-712 -404 c11 -1
-5 -5 -35 -9 -30 -5 -59 -6 -65 -2 -13 8 35 22 60 16 11 -2 29 -4 40 -5z m40
-138 c7 -12 -31 -25 -45 -16 -6 4 -8 11 -5 16 8 12 42 12 50 0z m-85 -110 c-1
-13 -3 -13 -15 3 -19 26 -19 42 0 26 8 -7 15 -20 15 -29z m1217 -336 c-4 -8
-14 -15 -23 -15 -16 0 -16 2 1 20 20 22 31 20 22 -5z m-1101 -70 c-7 -18 -26
-20 -26 -2 0 18 24 41 28 27 2 -6 1 -17 -2 -25z"/>
<path d="M906 1496 c-3 -11 -7 -53 -10 -93 -8 -93 -11 -100 -54 -114 -21 -7
-40 -17 -44 -23 -4 -6 -8 6 -8 27 0 43 -17 48 -46 16 -33 -37 -23 -209 12
-209 11 0 15 6 11 19 -3 11 3 28 14 40 11 11 19 29 19 41 0 11 2 20 4 20 14 0
75 -27 95 -42 40 -30 141 -15 141 21 0 10 12 24 26 31 14 8 28 26 31 42 7 36
16 35 58 -6 50 -50 133 -87 97 -43 -7 8 -9 16 -6 20 3 3 -4 8 -15 12 -24 7
-87 62 -155 135 -19 20 -38 34 -56 43 -37 19 -55 33 -56 45 -1 6 -2 18 -3 25
0 6 -12 13 -26 13 -18 2 -26 -4 -29 -20z"/>
<path d="M1475 1250 c-15 -16 -16 -22 -5 -35 19 -23 32 -14 35 23 3 37 -5 40
-30 12z"/>
<path d="M2538 2965 c38 -17 42 -35 8 -35 -16 0 -27 -7 -31 -21 -14 -43 41
-54 60 -11 11 25 27 24 31 -2 4 -26 13 -31 27 -17 9 11 9 14 -1 18 -6 3 -10 8
-7 13 10 17 61 -7 80 -38 11 -17 26 -29 33 -27 7 3 29 -4 50 -15 20 -11 46
-20 58 -20 12 0 47 -14 78 -30 l56 -30 0 115 0 115 -126 0 c-69 0 -134 -5
-145 -10 -13 -7 -19 -7 -19 0 0 6 -35 10 -92 10 -89 -1 -92 -1 -60 -15z"/>
<path d="M2010 2550 c-20 -12 -9 -21 18 -13 12 3 19 9 16 14 -7 11 -15 11 -34
-1z"/>
<path d="M2326 2518 c-20 -28 -21 -44 -2 -29 13 11 29 51 21 51 -2 0 -11 -10
-19 -22z"/>
<path d="M2037 2523 c-4 -3 -7 -17 -7 -30 0 -35 27 -29 28 7 1 29 -7 37 -21
23z"/>
<path d="M2935 1270 c-23 -24 -25 -30 -11 -30 29 0 56 19 56 40 0 28 -12 25
-45 -10z"/>
<path d="M2396 1051 c-32 -33 -55 -64 -52 -70 5 -8 13 -8 26 -1 11 6 23 9 27
8 14 -5 103 73 103 89 0 9 -6 13 -15 9 -9 -3 -15 0 -15 9 0 25 -12 17 -74 -44z"/>
<path d="M1931 976 c-8 -9 -11 -19 -7 -23 9 -9 29 13 24 27 -2 8 -8 7 -17 -4z"/>
<path d="M2400 894 l-25 -15 25 5 c14 3 33 6 43 6 9 0 17 5 17 10 0 15 -31 12
-60 -6z"/>
<path d="M2229 773 c-7 -16 -15 -32 -17 -36 -2 -5 21 -7 52 -5 l55 3 -31 32
c-18 18 -35 33 -38 33 -4 0 -13 -12 -21 -27z"/>
<path d="M2730 759 c0 -7 -8 -18 -17 -25 -17 -13 -17 -13 3 -14 23 0 44 18 44
37 0 7 -7 13 -15 13 -8 0 -15 -5 -15 -11z"/>
<path d="M2925 600 c-22 -10 -57 -19 -77 -19 -22 -1 -38 -6 -38 -13 0 -18 51
-141 70 -168 10 -14 27 -45 40 -69 20 -39 21 -48 10 -87 -8 -27 -10 -64 -5
-100 8 -67 -6 -108 -44 -129 -25 -14 -23 -14 37 -15 l62 0 0 310 c0 171 -3
310 -7 309 -5 0 -26 -9 -48 -19z"/>
<path d="M2243 469 c-8 -8 -8 -20 -3 -34 5 -13 6 -26 3 -29 -4 -3 4 -17 16
-30 l23 -25 -21 -45 c-28 -56 -31 -151 -7 -188 9 -14 14 -32 11 -41 -5 -11 0
-15 17 -16 13 0 53 -3 89 -7 54 -5 71 -3 103 14 21 11 44 33 52 48 15 29 15
30 -38 89 -44 47 -54 80 -34 110 9 14 26 25 38 25 21 0 22 0 2 18 -28 26 -111
82 -121 82 -5 0 -28 9 -51 20 -47 23 -63 25 -79 9z"/>
<path d="M2797 144 c-4 -4 -7 -14 -7 -23 0 -11 3 -12 11 -4 6 6 10 16 7 23 -2
6 -7 8 -11 4z"/>
<path d="M2056 110 c-3 -18 -6 -45 -6 -61 0 -23 -6 -30 -32 -38 -32 -9 -32 -9
15 -10 44 -1 60 10 37 24 -14 9 -13 72 2 77 8 3 8 9 1 22 -9 16 -11 14 -17
-14z"/>
<path d="M1846 121 c-34 -7 -64 -44 -68 -86 -5 -45 32 -46 75 -3 17 19 42 41
55 50 14 10 20 21 16 32 -6 16 -27 18 -78 7z"/>
</g>
</svg>
